<svg width="258" height="258" viewBox="0 0 258 258" fill="none" xmlns="http://www.w3.org/2000/svg">
<path d="M118.972 2.83026C90.4522 4.89941 62.8127 17.3092 41.8166 37.49C33.5426 45.3874 28.718 51.2156 22.6988 60.4287C11.7313 77.2271 4.3344 98.4115 2.95668 116.964L2.58 122.48H35.8001H69.0202L69.7709 118.533C74.7839 92.0828 95.4677 72.5264 121.856 69.2059C138.778 67.0748 156.769 72.903 169.429 84.5621C178.83 93.2747 185.161 104.493 187.667 116.84L188.732 122.168L222.076 122.356C250.908 122.483 255.358 122.356 255.358 121.606C255.358 121.105 254.919 117.344 254.419 113.27C248.777 70.207 222.577 33.8548 183.593 14.9898C174.191 10.4155 162.408 6.46548 152.692 4.71107C146.487 3.51911 131.131 2.01497 127.496 2.20331C126.619 2.26523 122.795 2.5155 118.972 2.83026Z" fill="white" fill-opacity="0.19"/>
<path d="M122.607 82.9934C104.369 85.5012 88.6978 99.4771 83.8087 117.467C82.3046 123.045 82.3046 135.078 83.8087 140.659C87.382 153.822 96.4688 164.978 108.378 170.744C116.087 174.442 120.287 175.383 129.374 175.383C136.456 175.321 137.772 175.133 142.849 173.44C150.935 170.682 155.824 167.612 161.965 161.407C166.415 156.957 167.855 154.952 170.301 150.063C174.439 141.665 175.316 137.215 174.939 127.186C174.563 116.281 172.62 110.514 166.665 102.116C156.892 88.2592 139.341 80.674 122.607 82.9934ZM134.39 109.694C141.472 111.637 147.303 118.03 148.807 125.427C150.623 134.013 145.86 143.353 137.651 147.364C134.581 148.869 133.327 149.119 128.75 149.119C124.426 149.057 122.922 148.807 120.602 147.615C115.901 145.171 113.394 142.788 111.201 138.714C107.127 131.067 108.192 121.918 113.897 115.775C119.66 109.57 126.557 107.501 134.39 109.694Z" fill="white" fill-opacity="0.19"/>
<path d="M2.95668 141.41C4.71108 163.974 15.3665 190.236 30.1602 208.35C34.4224 213.616 44.5127 223.707 49.7785 227.969C88.009 258.929 141.286 264.571 185.471 242.383C198.381 235.866 207.847 229.032 218.376 218.441C239.561 197.195 251.971 170.68 255.043 140.159L255.42 136.273H221.95H188.544L187.729 140.785C184.532 159.65 169.302 178.203 151.376 185.097C142.602 188.482 138.714 189.171 128.75 189.171C121.291 189.171 118.721 188.92 114.333 187.729C90.767 181.459 73.7183 162.721 69.5826 138.59L69.144 136.27H35.862H2.58L2.95668 141.41Z" fill="white" fill-opacity="0.19"/>
</svg>
